<?xml version="1.0" encoding="UTF-8"?>
<svg width="27px" height="27px" viewBox="0 0 27 27" version="1.1" xmlns="http://www.w3.org/2000/svg" xmlns:xlink="http://www.w3.org/1999/xlink">
    <!-- Generator: Sketch 52.2 (67145) - http://www.bohemiancoding.com/sketch -->
    <title>Menu / Item / Icon / Analysis</title>
    <desc>Created with Sketch.</desc>
    <g id="Menu-/-Item-/-Icon-/-Analysis" stroke="none" stroke-width="1" fill="none" fill-rule="evenodd">
        <g id="Group" transform="translate(1.000000, 1.000000)" fill="currentColor">
            <path d="M22.5209176,2.31985092 C21.0250023,0.823785042 19.0360208,0 16.9203843,0 C14.8047477,0 12.8157662,0.823785012 11.3198509,2.31985092 C9.82393565,3.81591683 9,5.8047477 9,7.92038427 C9,10.036322 9.82393562,12.0251529 11.3198509,13.5212188 C12.8157662,15.0172847 14.8047477,15.8410697 16.9203843,15.8410697 C19.0360208,15.8410697 21.0250023,15.0172847 22.5209176,13.5212188 C24.0168329,12.0251529 24.8407685,10.036322 24.8407685,7.92038427 C24.8407685,5.8047477 24.0168329,3.8159168 22.5209176,2.31985092 Z M19.0352678,7.11587613 L19.0352678,9.27488565 L19.7620661,9.27488565 L19.7620661,6.19058633 C19.7620661,5.93516779 19.9691418,5.72794143 20.224711,5.72794143 C20.4802801,5.72794143 20.6873559,5.93516779 20.6873559,6.19058633 L20.6873559,9.27488565 L21.1551212,9.27488565 C21.4106904,9.27488565 21.6177661,9.48211201 21.6177661,9.73753055 C21.6177661,9.99294908 21.4106904,10.2001754 21.1551212,10.2001754 L12.7118518,10.2001754 C12.4562827,10.2001754 12.2492069,9.99294908 12.2492069,9.73753055 C12.2492069,9.48211201 12.4562827,9.27488565 12.7118518,9.27488565 L13.1534126,9.27488565 L13.1534126,8.34959585 C13.1534126,8.09417732 13.3604884,7.88695096 13.6160575,7.88695096 C13.8716267,7.88695096 14.0787024,8.09417732 14.0787024,8.34959585 L14.0787024,9.27488565 L14.8055007,9.27488565 L14.8055007,8.04116592 C14.8055007,7.78574738 15.0125765,7.57852102 15.2681456,7.57852102 C15.5237147,7.57852102 15.7307905,7.78574738 15.7307905,8.04116592 L15.7307905,9.27488565 L16.4577394,9.27488565 L16.4577394,7.73273599 C16.4577394,7.47731745 16.6648151,7.27009109 16.9203843,7.27009109 C17.1759534,7.27009109 17.3830292,7.47731745 17.3830292,7.73273599 L17.3830292,9.27488565 L18.109978,9.27488565 L18.109978,7.11587613 C18.109978,6.86045759 18.3170538,6.65323123 18.5726229,6.65323123 C18.8281921,6.65323123 19.0352678,6.86045759 19.0352678,7.11587613 Z M14.0985817,13.716096 C14.0127394,13.8639857 13.8574702,13.9465148 13.6979842,13.9465148 C13.6192202,13.9465148 13.5392513,13.9263343 13.46621,13.8841662 C12.9510055,13.5850735 12.473903,13.2179094 12.048607,12.7929146 C9.36204375,10.1062007 9.36204375,5.73486908 12.0484564,3.04845643 C13.6437681,1.45329538 15.923258,0.740653553 18.1470258,1.14004623 C18.3983781,1.18552758 18.5655447,1.42588607 18.5202139,1.677389 C18.4750338,1.92919311 18.2339223,2.09425133 17.9830218,2.05087837 C16.0571419,1.7038947 14.0838229,2.32165817 12.7026652,3.70266525 C10.3770914,6.02854017 10.3770914,9.81252966 12.7026652,12.1384046 C13.0713353,12.5067735 13.4845832,12.8248419 13.9306621,13.0835737 C14.1515931,13.2118853 14.2268934,13.4950143 14.0985817,13.716096 Z M21.7923121,12.7926133 C20.5016654,14.0829589 18.7370787,14.8103596 16.9169204,14.8103596 C16.8327347,14.8103596 16.748549,14.8088536 16.6642127,14.8058416 C16.4089448,14.7965043 16.2095497,14.5817479 16.2190375,14.3263294 C16.2285253,14.0712121 16.4389143,13.8697085 16.6985496,13.8811542 C18.3507883,13.9429004 19.9691418,13.3070649 21.1381033,12.1384046 C23.3555459,9.92096203 23.4728637,6.34088569 21.4054193,3.98790267 C21.2367467,3.79603757 21.2557224,3.50357129 21.4475875,3.33489867 C21.6396032,3.16622605 21.9317683,3.18520171 22.1005915,3.37706684 C24.4891162,6.09540677 24.3537263,10.2311991 21.7923121,12.7926133 Z" id="Shape" fill-rule="nonzero"></path>
            <path d="M8.05825909,15 L0.455190162,22.6029183 C-0.151730054,23.2101397 -0.151730054,24.1977781 0.455190162,24.8049996 C0.749313047,25.0989718 1.14042268,25.261018 1.5563814,25.261018 C1.97234013,25.261018 2.36329915,25.0989718 2.65742204,24.8049996 L10.2604157,17.2021566 L8.05825909,15 Z" id="Path"></path>
            <path d="M10.5086475,14.8802102 C9.93534891,14.3069116 9.45952643,13.6729397 9.07681279,13 L8.12298419,13.9537157 C7.95898018,14.1178703 7.95898018,14.3850356 8.12313479,14.5491903 L10.8396676,17.265723 C10.9987017,17.4247572 11.2759574,17.4247572 11.4346903,17.265723 L12.3887072,16.3119321 C11.7158051,15.9292372 11.0818897,15.4534524 10.5086475,14.8802102 Z" id="Path"></path>
        </g>
    </g>
</svg>