<?xml version="1.0" encoding="UTF-8"?>
<svg width="27px" height="24px" viewBox="0 0 27 24" version="1.1" xmlns="http://www.w3.org/2000/svg" xmlns:xlink="http://www.w3.org/1999/xlink">
    <!-- Generator: Sketch 51.3 (57544) - http://www.bohemiancoding.com/sketch -->
    <title>Basket</title>
    <desc>Created with Sketch.</desc>
    <defs></defs>
    <g id="Symbols" stroke="none" stroke-width="1" fill="none" fill-rule="evenodd">
        <g id="Menu-/-Item-/-Icon-/-Basket" transform="translate(0.000000, -1.000000)" fill="currentColor" fill-rule="nonzero">
            <g id="Basket" transform="translate(0.000000, 1.000000)">
                <path d="M27,7.98276962 L27,11.0204212 C26.998805,11.5608739 26.5902377,11.9986878 26.0858585,12 L0.917050881,12 C0.412080051,11.9989948 0.00251305417,11.561502 0,11.0204212 L0,7.98276962 C0.00228209707,7.44106806 0.411506425,7.00251743 0.917050881,7 L11.4587065,7 C10.6234022,8.05753667 10.7153955,9.63285294 11.6672156,10.5705656 C12.6190358,11.5082783 14.0917423,11.4744703 15.0052089,10.4939375 L18.2659941,7 L26.0858585,7 C26.5908145,7.00281673 26.999043,7.44169248 27,7.98276962 Z" id="Shape"></path>
                <path d="M1,12 L1,22.7078943 C1.03239177,23.4508524 1.68639868,24.0284368 2.46184311,23.998917 L23.5381569,23.998917 C24.3136013,24.0284368 24.9676082,23.4508524 25,22.7078943 L25,12 L1,12 Z M5.10658734,21.5237537 C5.10658734,21.9027748 4.78592168,22.2100321 4.39036054,22.2100321 C3.9947994,22.2100321 3.67413374,21.9027748 3.67413374,21.5237537 L3.67413374,14.5623566 C3.67571672,14.1839628 3.99545413,13.8775874 4.39036054,13.8760613 C4.78472645,13.8788278 5.10370988,14.1844807 5.10658734,14.5623566 L5.10658734,21.5237537 Z M9.21031558,21.5237537 C9.21083379,21.7687771 9.07470849,21.9954007 8.85333797,22.118056 C8.63196744,22.2407113 8.35907803,22.2407113 8.13770751,22.118056 C7.91633699,21.9954007 7.78021169,21.7687771 7.78072989,21.5237537 L7.78072989,14.5623566 C7.78233895,14.1839195 8.10214859,13.8775364 8.49710053,13.8760613 C8.68702213,13.8754068 8.86912837,13.9484617 9.00191194,14.0785747 C9.13572312,14.2068867 9.21071656,14.3809644 9.21032732,14.5623566 L9.21031558,21.5237537 Z M18.2192701,21.4421858 C18.2184713,21.8199061 17.8986817,22.1257037 17.5044773,22.1257037 C17.1102728,22.1257037 16.7904833,21.8199061 16.7896844,21.4421858 L16.7896844,14.4807888 C16.7910666,14.103465 17.1106851,13.7982841 17.5044773,13.7982841 C17.8982694,13.7982841 18.2178879,14.103465 18.2192701,14.4807888 L18.2192701,21.4421858 Z M22.3258604,21.4787507 C22.3258604,21.8577718 22.0051947,22.1650291 21.6096336,22.1650291 C21.2140724,22.1650291 20.8934068,21.8577718 20.8934068,21.4787507 L20.8934068,14.5173537 C20.8945153,14.2406565 21.0689757,13.9916774 21.3358359,13.8859462 C21.6026961,13.780215 21.9097215,13.8384273 22.1144479,14.0335717 C22.2502779,14.160815 22.3265445,14.3353385 22.3258604,14.5173537 L22.3258604,21.4787507 Z" id="Shape"></path>
                <rect id="Rectangle-path" transform="translate(16.000000, 5.500000) rotate(-45.000000) translate(-16.000000, -5.500000) " x="10" y="4" width="12" height="3" rx="1.5"></rect>
            </g>
        </g>
    </g>
</svg>