<?xml version="1.0" encoding="UTF-8"?>
<svg width="24px" height="28px" viewBox="0 0 24 28" version="1.1" xmlns="http://www.w3.org/2000/svg" xmlns:xlink="http://www.w3.org/1999/xlink">
    <!-- Generator: Sketch 51.3 (57544) - http://www.bohemiancoding.com/sketch -->
    <title>Bell</title>
    <desc>Created with Sketch.</desc>
    <defs></defs>
    <g id="Symbols" stroke="none" stroke-width="1" fill="none" fill-rule="evenodd">
        <g id="Basket-/-Notifications-/-Reminder" transform="translate(-7.000000, -10.000000)" fill="#93FBC5" fill-rule="nonzero">
            <g id="Group">
                <g transform="translate(7.000000, 8.000000)">
                    <g id="Bell" transform="translate(0.000000, 2.000000)">
                        <g id="noun_reminder_1647050">
                            <path d="M13.8674872,2.83629217 C13.8674872,1.97468376 13.9671195,1.27487943 13.3055551,0.603391179 C12.0940143,-0.62632252 10.0455551,0.267646926 10.0455551,1.97468376 L10.0455551,2.83629217 C6.04428298,3.6655397 2.89188646,7.09174858 2.89188646,11.2865283 C2.89188646,13.3778497 3.12303519,16.0516686 2.12670261,17.8719678 C1.79592037,18.4706444 1.34557789,18.907517 0.759734565,18.907517 C0.41699587,18.907517 0.138022733,19.1866294 0.138022733,19.5345079 L0.138022733,23.0092583 C0.138022733,23.3571368 0.41699587,23.6402967 0.759734565,23.6402967 L23.1533083,23.6402967 C23.4960458,23.6402967 23.7750186,23.3571368 23.7750186,23.0092583 L23.7750186,19.5345079 C23.7750186,19.1866294 23.4960458,18.907517 23.1533083,18.907517 C21.5153365,18.907517 21.0211555,15.6997438 21.0211555,14.5104819 C21.0211555,11.0559569 21.3599101,8.4751758 18.8212528,5.65977936 C17.5539171,4.25612621 15.8242836,3.24080296 13.8674872,2.83629217 Z M16.7568515,8.07875573 C16.1311547,7.55693606 16.908295,6.58610981 17.5379759,7.10388382 C19.0643571,8.36191378 19.2317418,11.1409046 18.0520834,10.9426936 C16.9561185,10.7566191 18.2752621,9.32869434 16.7568515,8.07875573 Z" id="Shape"></path>
                            <path d="M13.8794431,24.603031 C13.8794431,23.7737841 15.1188809,23.7737841 15.1188809,24.603031 C15.1188809,27.3941594 11.687511,28.7169099 9.72672814,26.8116619 C8.77423376,25.8853332 8.34780391,23.971995 9.41188767,23.971995 C10.3603956,23.971995 9.69883109,25.0439486 10.5835743,25.9055586 C11.7393198,27.0300981 13.8794431,26.3141132 13.8794431,24.603031 Z" id="Shape"></path>
                        </g>
                    </g>
                </g>
            </g>
        </g>
    </g>
</svg>