<?xml version="1.0" encoding="UTF-8"?>
<svg width="27px" height="27px" viewBox="0 0 27 27" version="1.1" xmlns="http://www.w3.org/2000/svg" xmlns:xlink="http://www.w3.org/1999/xlink">
    <!-- Generator: Sketch 52.2 (67145) - http://www.bohemiancoding.com/sketch -->
    <g stroke="none" stroke-width="1" fill="none" fill-rule="evenodd">
        <g id="Group" transform="translate(0.000000, 2.000000)" fill="currentColor">
            <path d="M-9.09494702e-13,7.10542736e-15 L6.6277666,9.38714992 C7.02615694,9.93080725 7.24346076,10.6194399 7.20724346,11.3080725 L7.20724346,22 L10.4668008,20.7314662 L10.4668008,11.3080725 C10.5030181,10.583196 10.7565392,9.93080725 11.1911469,9.3509061 L18,7.10542736e-15 L-9.09494702e-13,7.10542736e-15 Z" id="Path"></path>
            <path d="M21.5,12 C18.4731544,12 16,14.4731544 16,17.5 C16,20.5268456 18.4731544,23 21.5,23 C24.5268456,23 27,20.5268456 27,17.5 L27,17.4630872 C26.9630872,14.4362416 24.5268456,12 21.5,12 Z M23.6409396,18.2013423 L22.2751678,18.2013423 L22.2751678,19.6040268 C22.2751678,20.0100671 21.942953,20.3422819 21.5369128,20.3422819 C21.1308725,20.3422819 20.7986577,20.0100671 20.7986577,19.6040268 L20.7986577,18.2013423 L19.3590604,18.2013423 C18.9530201,18.2013423 18.6208054,17.8691275 18.6208054,17.4630872 C18.6208054,17.057047 18.9530201,16.7248322 19.3590604,16.7248322 L20.7986577,16.7248322 L20.7986577,15.3590604 C20.7986577,14.9530201 21.1308725,14.6208054 21.5369128,14.6208054 C21.942953,14.6208054 22.2751678,14.9530201 22.2751678,15.3590604 L22.2751678,16.7248322 L23.6409396,16.7248322 C24.0469799,16.7248322 24.3791946,17.057047 24.3791946,17.4630872 C24.3791946,17.8691275 24.0469799,18.2013423 23.6409396,18.2013423 Z" id="Shape" fill-rule="nonzero"></path>
        </g>
    </g>
</svg>
