<svg xmlns="http://www.w3.org/2000/svg" xmlns:xlink="http://www.w3.org/1999/xlink" version="1.1" x="0px" y="0px" viewBox="0 0 95 50" xml:space="preserve"><g><path d="M80.536,35.61c-0.462-1.549-0.906-3.102-1.339-4.658c-0.509-1.833-1.403-3.985-1.403-5.912   c-2.484,1.167-4.894,2.431-7.626,2.844c-1.612,0.244-3.104,0.14-4.722,0.109c-1.545-0.029-3.069,0.079-4.615,0.026   c-2.293-0.079-4.611-0.162-6.885-0.499c-1.443-0.213-2.972-0.035-4.33,0.499c-1.057,0.414-1.691,1.172-2.604,1.752   c-0.763,0.484-1.539,0.95-2.322,1.4c-0.975,0.562-2.479,1.006-3.242,1.81c-1.065,1.123-2.021,2.201-2.592,3.658   c-0.526,1.344-0.94,2.753-1.818,3.923c-0.667,0.885-1.606,1.573-2.088,2.593c-0.531,1.121,0.305,1.859,1.328,2.211   c1.282,0.441,2.775,0.277,3.951-0.386c2.395-1.355,3.372-4.185,5.462-5.884c2.072-1.685,5.674-2.866,8.179-1.527   c1.304,0.696,2.345,1.79,3.642,2.517c1.41,0.788,2.898,1.417,4.291,2.236c2.932,1.72,5.547,3.878,8.633,5.339   c2.99,1.413,6.208,2.649,8.611,5.014c1.022-0.766,2.037-1.549,2.996-2.395c0.673-0.596,1.213-1.308,1.894-1.888   c0.518-0.442,1.08-0.834,1.69-1.138C82.856,44.149,81.495,39.536,80.536,35.61z"/><path d="M78.514,55.41c-1.5-2.652-4.318-4.109-6.99-5.299c-3.058-1.364-5.741-3.075-8.511-4.94   c-2.512-1.69-5.324-3.148-8.067-4.425c-0.406-0.19-0.372-0.478-0.723-0.778c-0.476-0.41-0.976-0.83-1.578-1.041   c-1.321-0.46-3.17,0.052-4.382,0.63c-2.486,1.185-3.583,3.817-5.473,5.659c-2.04,1.991-5.269,2.858-7.913,1.482   c-0.756-0.395-1.52-1.119-1.781-1.939c-0.422-1.325,0.389-2.686,1.19-3.683c0.912-1.138,1.862-2.071,2.38-3.467   c0.535-1.437,0.964-2.813,1.883-4.064c-1.785,0.405-3.61,1.084-5.449,1.062c-1.064-0.013-1.917-0.361-2.886-0.695   c-1.453-0.503-2.906-1.007-4.358-1.51c-0.453-0.156-0.474,0.461-0.63,0.855c-2.354,5.886-4.708,11.771-7.063,17.657   c-0.476,1.194-0.954,2.389-1.432,3.583c1.26,0.375,2.95,0.771,3.998,1.625c1.423,1.158,3.047,2.102,4.609,3.055   c0.338,0.205,0.517,0.5,0.786,0.158c0.259-0.332,0.582-0.611,0.953-0.814c0.729-0.393,1.589-0.451,2.396-0.312   c1.746,0.305,3.434,1.469,4.331,2.998c1.536-1.139,3.531-1.682,5.415-1.205c0.766,0.193,1.485,0.59,2.013,1.182   c0.256,0.287,0.462,0.615,0.608,0.969c0.187,0.451,1.011,0.061,1.511,0.041c1.746-0.076,3.979,0.396,4.595,2.258   c0.266,0.807,0.181,1.832,0.564,2.584c0.18,0.355,0.767,0.279,1.088,0.291c0.601,0.023,1.128,0.123,1.657,0.416   c1.947,1.084,2.225,3.416,1.98,5.438c-0.095,0.783-0.156,0.811,0.615,1.115c0.431,0.172,0.879,0.307,1.333,0.402   c0.585,0.125,1.195,0.199,1.793,0.162c1.945-0.121,3.613-1.18,3.728-3.268c1.589,0.781,3.899,1.373,5.362,0.002   c1.187-1.115,1.185-2.941,0.639-4.373c2.092,0.654,4.269,0.062,5.279-1.971c0.81-1.633,0.086-4.055-0.518-5.662   c1.918,1.238,4.409,2.557,6.297,0.521C78.98,58.797,79.168,57.057,78.514,55.41z"/><path d="M31.937,61.748c-0.82-0.984-1.754-1.564-3.029-1.719c-0.884-0.105-1.615,0.025-1.755,1.1   c-0.176,1.35,0.669,3.311,1.778,4.125c0.803,0.588,2.979,1.732,3.655,0.342C33.144,64.453,32.438,62.75,31.937,61.748   C31.511,61.236,32.148,62.174,31.937,61.748z"/><path d="M40.343,63.822c0.051-1.119-1.681-1.98-2.572-2.141c-1.457-0.262-2.965,0.746-3.734,1.902   c-1.224,1.846-1.478,4.574-0.045,6.387c1.222,1.545,3.76,0.754,4.872-0.518c0.782-0.893,1.225-2.037,1.466-3.186   c0.089-0.428,0.152-0.859,0.185-1.295C40.549,64.527,40.321,64.227,40.343,63.822C40.343,63.791,40.33,64.055,40.343,63.822z"/><path d="M47.029,68.025c-0.427-0.799-0.137-1.914-0.67-2.633c-0.416-0.559-1.037-0.891-1.699-1.061   c-0.75-0.193-1.698-0.531-2.346,0.012c-1.631,1.365-2.574,4.166-2.36,6.219c0.174,1.674,1.426,3.482,3.368,2.842   c1.191-0.396,2.063-1.453,2.676-2.502C46.36,70.279,47.339,68.627,47.029,68.025C46.72,67.445,47.037,68.039,47.029,68.025z"/><path d="M49.482,69.104c-0.528-0.061-1.111-0.248-1.583,0.039c-0.452,0.273-0.776,0.729-1.016,1.189   c-0.459,0.891-0.778,1.939-0.792,2.943c-0.018,1.27,0.643,2.574,1.989,2.717C51.661,76.377,52.555,70.354,49.482,69.104   C49.288,69.082,50.182,69.389,49.482,69.104z"/><path d="M89.035,46.878c0,0-3.18-0.265-5.167-7.024c0,0-3.976-12.329-4.11-14.449c0,0-1.058-2.653,0.796-3.05l7.158-3.579   l9.146,25.65C96.858,44.426,95.268,45.288,89.035,46.878z"/><path d="M16.928,26.598l6.362,2.385c0,0,1.459,0.266-0.133,3.977L14.41,54.434c0,0-1.061,1.725-5.833,0.133l-5.436-2.252   l11.533-26.512L16.928,26.598z"/></g></svg>
