<svg xmlns="http://www.w3.org/2000/svg" xmlns:xlink="http://www.w3.org/1999/xlink" version="1.1" x="0px" y="0px"  xml:space="preserve"><g><path d="M94.874,38.491L71.527,15.141c-0.573-0.573-1.432-0.744-2.18-0.434c-0.747,0.31-1.234,1.039-1.234,1.848v11.253H50.002   c-1.104,0-2,0.896-2,2s0.896,2,2,2h20.111c1.104,0,2-0.896,2-2v-8.424l18.519,18.521L72.113,58.424V50c0-1.104-0.896-2-2-2h-3.887   C65.235,39.92,58.343,33.639,50,33.639S34.765,39.92,33.773,48h-1.888c0-0.023,0-0.047,0-0.07l0.001-11.182   c0-0.809-0.487-1.538-1.234-1.848c-0.748-0.309-1.607-0.14-2.18,0.434L5.126,58.68c-0.781,0.781-0.781,2.047,0,2.828l23.347,23.352   c0.383,0.383,0.894,0.586,1.414,0.586c0.258,0,0.518-0.05,0.766-0.152c0.747-0.31,1.234-1.039,1.234-1.848l-0.001-11.184   c0-0.023,0-0.047,0-0.07h18.116c1.104,0,2-0.896,2-2s-0.896-2-2-2H29.885c-1.104,0-2,0.896-2,2c0,0.008,0,0.016,0,0.023   c0.001,0.263,0.002,4.729,0.002,8.401L9.368,60.094l18.519-18.518c0,3.614-0.001,7.999-0.002,8.385   c-0.002,0.108,0.005,0.219,0.021,0.329C28.05,51.272,28.893,52,29.885,52h3.889C34.765,60.08,41.657,66.361,50,66.361   S65.235,60.08,66.227,52h1.887v11.252c0,0.809,0.487,1.538,1.234,1.848c0.248,0.103,0.508,0.152,0.766,0.152   c0.521,0,1.031-0.203,1.414-0.586l23.347-23.347C95.655,40.538,95.655,39.272,94.874,38.491z M50,62.361   c-6.816,0-12.361-5.545-12.361-12.361S43.184,37.639,50,37.639S62.361,43.184,62.361,50S56.816,62.361,50,62.361z"/><path d="M49.502,47.862c-0.349-0.085-0.69-0.169-1.015-0.258c-0.623-0.172-0.992-0.52-1.012-0.952   c-0.007-0.158,0.027-0.545,0.496-0.721c2.252-0.838,4.144,0.73,4.246,0.817c0.827,0.722,2.081,0.644,2.812-0.178   c0.733-0.825,0.659-2.09-0.167-2.823c-0.089-0.079-1.374-1.188-3.338-1.748v-0.895c0-1.104-0.896-2-2-2s-2,0.896-2,2v0.793   c-0.313,0.075-0.631,0.166-0.955,0.287c-1.939,0.726-3.181,2.592-3.09,4.645c0.098,2.179,1.646,3.996,3.945,4.63   c0.358,0.1,0.737,0.192,1.123,0.287c1.143,0.281,3.057,0.751,3.086,1.325c0.02,0.406-0.094,0.584-0.194,0.693   c-0.285,0.311-0.921,0.526-1.616,0.55c-1.343,0.043-3.073-0.733-3.821-1.455c-0.795-0.768-2.061-0.745-2.828,0.049   c-0.768,0.795-0.745,2.062,0.049,2.828c1.074,1.038,2.679,1.853,4.302,2.271v0.887c0,1.104,0.896,2,2,2s2-0.896,2-2v-0.807   c1.147-0.288,2.149-0.842,2.859-1.614c0.884-0.961,1.314-2.206,1.244-3.602C55.449,49.323,51.87,48.444,49.502,47.862z"/></g></svg>
