<?xml version="1.0" encoding="UTF-8"?>
<svg width="27px" height="27px" viewBox="0 0 27 27" version="1.1" xmlns="http://www.w3.org/2000/svg" xmlns:xlink="http://www.w3.org/1999/xlink">
    <!-- Generator: Sketch 52 (66869) - http://www.bohemiancoding.com/sketch -->
    <title>Menu / Item / Icon / Orders</title>
    <desc>Created with Sketch.</desc>
    <g id="Menu-/-Item-/-Icon-/-Orders" stroke="none" stroke-width="1" fill="none" fill-rule="evenodd">
        <path d="M1.06276596,5.44680851 L2.0393617,5.15957447 C2.0393617,5.15957447 2.0393617,5.15957447 2.0393617,5.15957447 L4.39468085,4.44148936 L4.39468085,10.243617 L7.09468085,9.72659574 L7.09468085,3.63723404 L9.50744681,2.91914894 L11.9489362,2.20106383 C11.9776596,2.20106383 12.006383,2.20106383 12.006383,2.17234043 C12.0351064,2.17234043 12.0351064,2.17234043 12.0638298,2.17234043 C12.2074468,2.14361702 12.3510638,2.14361702 12.4946809,2.17234043 C12.5234043,2.17234043 12.5234043,2.17234043 12.5521277,2.17234043 C12.5808511,2.17234043 12.6095745,2.17234043 12.6095745,2.20106383 L17.1478723,3.55106383 C16.5734043,4.15425532 16.1138298,4.84361702 15.7691489,5.61914894 L13.4425532,4.92978723 L13.4425532,22.6521277 L21.9734043,20.0957447 L21.9734043,14.9255319 C21.9734043,14.9255319 22.0021277,14.9255319 22.0021277,14.9255319 C22.8351064,14.9255319 23.6393617,14.7531915 24.3574468,14.4946809 L24.3574468,20.9574468 C24.3574468,21.4744681 24.012766,21.9340426 23.4957447,22.106383 L12.6382979,25.3808511 C12.5234043,25.4095745 12.4085106,25.4382979 12.293617,25.4382979 C12.1787234,25.4382979 12.0638298,25.4095745 11.9489362,25.3808511 L1.06276596,22.106383 C0.545744681,21.962766 0.20106383,21.5031915 0.20106383,20.9574468 L0.20106383,6.59574468 C0.20106383,6.05 0.545744681,5.59042553 1.06276596,5.44680851 Z" id="Path" fill="currentColor" fill-rule="nonzero"></path>
        <path d="M22.0021277,3.40744681 C24.6446809,3.40744681 26.7989362,5.56170213 26.7989362,8.20425532 C26.7989362,10.8468085 24.6446809,13.0010638 22.0021277,13.0010638 C19.3595745,13.0010638 17.2053191,10.8468085 17.2053191,8.20425532 C17.2053191,5.53297872 19.3595745,3.40744681 22.0021277,3.40744681 Z" id="Path" fill="currentColor" fill-rule="nonzero"></path>
        <polygon id="Path" fill="currentColor" fill-rule="nonzero" points="19.5893617 8.34787234 20.4797872 9.23829787 21.3989362 10.1574468 22.3180851 9.23829787 24.4148936 7.14148936 23.4957447 6.22234043 21.3989362 8.31914894 20.5085106 7.4287234"></polygon>
    </g>
</svg>