<?xml version="1.0" encoding="UTF-8"?>
<svg width="70px" height="88px" viewBox="0 0 70 88" version="1.1" xmlns="http://www.w3.org/2000/svg" xmlns:xlink="http://www.w3.org/1999/xlink">
    <!-- Generator: Sketch 51.3 (57544) - http://www.bohemiancoding.com/sketch -->
    <title>report1</title>
    <desc>Created with Sketch.</desc>
    <defs></defs>
    <g id="Metrics" stroke="none" stroke-width="1" fill="none" fill-rule="evenodd">
        <g id="Metrics---Dash" transform="translate(-713.000000, -258.000000)" fill="#0FB3DF" fill-rule="nonzero">
            <g id="Group-Copy-2" transform="translate(578.000000, 146.000000)">
                <g id="Background">
                    <path d="M148.1775,159.299 L185.673194,159.299 C186.307083,159.299 186.822361,158.77 186.822361,158.116 C186.822361,157.463 186.308056,156.934 185.673194,156.934 L148.1775,156.934 C147.542639,156.934 147.027361,157.463 147.027361,158.116 C147.027361,158.77 147.541667,159.299 148.1775,159.299 Z M148.1775,165.038 L194.006111,165.038 C194.801389,165.038 195.446944,164.375 195.446944,163.556 C195.446944,162.738 194.801389,162.074 194.006111,162.074 L148.1775,162.074 C147.38125,162.074 146.736667,162.738 146.736667,163.556 C146.735694,164.375 147.380278,165.038 148.1775,165.038 Z M148.1775,170.477 L183.590694,170.477 C184.385972,170.477 185.031528,169.813 185.031528,168.995 C185.031528,168.176 184.385972,167.512 183.590694,167.512 L148.1775,167.512 C147.38125,167.512 146.736667,168.176 146.736667,168.995 C146.735694,169.813 147.380278,170.477 148.1775,170.477 Z M148.1775,177.729 L183.590694,177.729 C184.385972,177.729 185.031528,177.065 185.031528,176.247 C185.031528,175.429 184.385972,174.765 183.590694,174.765 L148.1775,174.765 C147.38125,174.765 146.736667,175.429 146.736667,176.247 C146.736667,177.065 147.380278,177.729 148.1775,177.729 Z M176.406944,181.685 C176.406944,181.032 175.892639,180.503 175.256806,180.503 L148.1775,180.503 C147.542639,180.503 147.027361,181.032 147.027361,181.685 C147.027361,182.338 147.541667,182.868 148.1775,182.868 L175.257778,182.868 C175.892639,182.868 176.406944,182.338 176.406944,181.685 Z M199.46125,112 L140.53875,112 C137.827222,112 135.628056,114.261 135.628056,117.051 L135.628056,206.949 C135.628056,209.739 137.827222,212 140.53875,212 L199.460278,212 C202.171806,212 204.370972,209.739 204.370972,206.949 L204.370972,117.05 C204.371944,114.261 202.172778,112 199.46125,112 Z M201.0975,206.949 C201.0975,207.878 200.363472,208.633 199.460278,208.633 L140.53875,208.633 C139.635556,208.633 138.901528,207.878 138.901528,206.949 L138.901528,117.05 C138.901528,116.121 139.635556,115.366 140.53875,115.366 L199.460278,115.366 C200.363472,115.366 201.0975,116.121 201.0975,117.05 L201.0975,206.949 Z M148.1775,131.333 L164.544861,131.333 C164.931806,131.333 165.245833,131.01 165.245833,130.611 C165.245833,130.212 164.932778,129.89 164.544861,129.89 L148.1775,129.89 C147.790556,129.89 147.475556,130.213 147.475556,130.611 C147.475556,131.009 147.789583,131.333 148.1775,131.333 Z M148.1775,136.144 L164.544861,136.144 C164.931806,136.144 165.245833,135.821 165.245833,135.422 C165.245833,135.023 164.932778,134.701 164.544861,134.701 L148.1775,134.701 C147.790556,134.701 147.475556,135.024 147.475556,135.422 C147.475556,135.82 147.789583,136.144 148.1775,136.144 Z M148.1775,138.453 C147.868333,138.453 147.6175,138.71 147.6175,139.029 C147.6175,139.346 147.868333,139.604 148.1775,139.604 L158.592917,139.604 C158.901111,139.604 159.151944,139.346 159.151944,139.029 C159.151944,138.711 158.901111,138.453 158.592917,138.453 L148.1775,138.453 Z M177.637778,139.944 L194.005139,139.944 C194.392083,139.944 194.707083,139.621 194.707083,139.222 C194.707083,138.823 194.393056,138.5 194.005139,138.5 L177.637778,138.5 C177.250833,138.5 176.935833,138.823 176.935833,139.222 C176.935833,139.621 177.250833,139.944 177.637778,139.944 Z M177.637778,144.754 L194.005139,144.754 C194.392083,144.754 194.707083,144.431 194.707083,144.033 C194.707083,143.635 194.393056,143.311 194.005139,143.311 L177.637778,143.311 C177.250833,143.311 176.935833,143.634 176.935833,144.033 C176.935833,144.432 177.250833,144.754 177.637778,144.754 Z M194.005139,147.064 L183.590694,147.064 C183.281528,147.064 183.030694,147.322 183.030694,147.64 C183.030694,147.957 183.281528,148.215 183.590694,148.215 L194.006111,148.215 C194.315278,148.215 194.565139,147.957 194.565139,147.64 C194.565139,147.322 194.315278,147.064 194.005139,147.064 Z M194.530139,193.501 L187.509722,197.05 L187.509722,194.27 C187.509722,193.932 187.31625,193.625 187.015833,193.487 C186.715417,193.349 186.364444,193.405 186.119444,193.631 L183.739444,195.823 L184.975139,190.305 C185.057778,189.939 184.898333,189.56 184.582361,189.371 C184.267361,189.182 183.86875,189.226 183.598472,189.481 L174.692917,197.898 C174.352639,198.219 174.33125,198.761 174.642361,199.11 C174.806667,199.294 175.030278,199.387 175.255833,199.387 C175.458056,199.387 175.660278,199.312 175.819722,199.16 L182.746806,192.614 L181.52375,198.072 C181.441111,198.436 181.598611,198.813 181.911667,199.003 C182.22375,199.193 182.620417,199.153 182.891667,198.903 L185.841389,196.186 L185.841389,198.424 C185.841389,198.72 185.989167,198.995 186.234167,199.152 C186.478194,199.309 186.783472,199.324 187.042083,199.194 L195.264167,195.037 C195.677361,194.828 195.8475,194.314 195.644306,193.889 C195.443056,193.467 194.943333,193.292 194.530139,193.501 Z" id="report1"></path>
                </g>
            </g>
        </g>
    </g>
</svg>