<?xml version="1.0" encoding="UTF-8"?>
<svg width="70px" height="88px" viewBox="0 0 70 88" version="1.1" xmlns="http://www.w3.org/2000/svg" xmlns:xlink="http://www.w3.org/1999/xlink">
    <!-- Generator: Sketch 51.3 (57544) - http://www.bohemiancoding.com/sketch -->
    <title>report3</title>
    <desc>Created with Sketch.</desc>
    <defs></defs>
    <g id="Metrics" stroke="none" stroke-width="1" fill="none" fill-rule="evenodd">
        <g id="Metrics---Dash" transform="translate(-224.000000, -258.000000)" fill="#5E77FF" fill-rule="nonzero">
            <g id="Group" transform="translate(90.000000, 146.000000)">
                <g id="Background">
                    <path d="M186.083952,177.165825 L149.417285,177.165825 C148.725275,177.165825 148.163944,177.727155 148.163944,178.419166 C148.163944,179.112167 148.724285,179.672507 149.417285,179.672507 L186.083952,179.672507 C186.775963,179.672507 187.338283,179.112167 187.338283,178.419166 C187.337293,177.727155 186.775963,177.165825 186.083952,177.165825 Z M186.083952,183.832491 L149.417285,183.832491 C148.725275,183.832491 148.163944,184.393822 148.163944,185.085833 C148.163944,185.777843 148.724285,186.340164 149.417285,186.340164 L186.083952,186.340164 C186.775963,186.340164 187.338283,185.778833 187.338283,185.085833 C187.338283,184.392832 186.775963,183.832491 186.083952,183.832491 Z M179.417285,189.086427 L156.083952,189.086427 C155.531531,189.086427 155.084051,189.534897 155.084051,190.086328 C155.084051,190.637758 155.531531,191.086229 156.083952,191.086229 L179.417285,191.086229 C179.969706,191.086229 180.417186,190.638748 180.417186,190.086328 C180.417186,189.533907 179.969706,189.086427 179.417285,189.086427 Z M199.000495,112 L139.000495,112 C136.239382,112 134,114.238392 134,117.000495 L134,205.999604 C134,208.761706 136.239382,211.000099 139.000495,211.000099 L198.999505,211.000099 C201.761607,211.000099 204,208.761706 204,205.999604 L204,117.000495 C204.00099,114.238392 201.762597,112 199.000495,112 Z M200.666666,205.999604 C200.666666,206.919314 199.920206,207.666765 198.999505,207.666765 L139.000495,207.666765 C138.081774,207.666765 137.333333,206.919314 137.333333,205.999604 L137.333333,117.000495 C137.333333,116.080784 138.081774,115.333333 139.000495,115.333333 L198.999505,115.333333 C199.920206,115.333333 200.666666,116.080784 200.666666,117.000495 L200.666666,205.999604 Z M190.246906,130.522918 C189.532125,130.064548 188.580734,130.273438 188.123354,130.988219 L184.62568,136.447084 L181.633897,136.447084 C181.019107,136.447084 180.462726,136.813385 180.221166,137.378675 L175.428571,148.560736 L173.496089,147.347985 C173.064449,147.077715 172.526878,147.038115 172.059598,147.244035 L166.884863,149.525987 L163.616869,146.802495 C163.298089,146.536184 162.885259,146.410454 162.471438,146.455004 C162.057618,146.499554 161.679438,146.708445 161.422037,147.036135 L153.417879,157.259875 L153.417879,127.271755 C153.417879,126.903475 153.118899,126.605485 152.750619,126.605485 C152.383328,126.605485 152.083358,126.904465 152.083358,127.271755 L152.083358,158.962677 L151.539847,159.656667 C151.016137,160.325908 151.133947,161.291159 151.803188,161.81586 C152.083358,162.03564 152.417978,162.14256 152.749629,162.14256 C153.206019,162.14256 153.65746,161.93961 153.96139,161.552519 L154.18216,161.271359 L189.418275,161.271359 C189.786556,161.271359 190.085536,160.973369 190.085536,160.605088 C190.085536,160.236808 189.786556,159.937828 189.418275,159.937828 L155.225621,159.937828 L162.867439,150.179388 L165.650332,152.49797 C166.098802,152.872191 166.720523,152.959311 167.255123,152.723691 L172.555588,150.386298 L175.317691,152.1188 C175.698842,152.35739 176.164142,152.41778 176.592812,152.28413 C177.022473,152.15048 177.370953,151.83566 177.548163,151.422829 L182.648648,139.521037 L185.468171,139.521037 C185.991882,139.521037 186.479952,139.253737 186.763093,138.813187 L190.714186,132.646471 C191.170577,131.93169 190.962677,130.981289 190.246906,130.522918 Z" id="report3"></path>
                </g>
            </g>
        </g>
    </g>
</svg>