<?xml version="1.0" encoding="UTF-8"?>
<svg width="70px" height="87px" viewBox="0 0 70 87" version="1.1" xmlns="http://www.w3.org/2000/svg" xmlns:xlink="http://www.w3.org/1999/xlink">
    <!-- Generator: Sketch 51.3 (57544) - http://www.bohemiancoding.com/sketch -->
    <title>report2</title>
    <desc>Created with Sketch.</desc>
    <defs></defs>
    <g id="Metrics" stroke="none" stroke-width="1" fill="none" fill-rule="evenodd">
        <g id="Metrics---Dash" transform="translate(-468.000000, -259.000000)" fill="#50E3C2" fill-rule="nonzero">
            <g id="Group-Copy" transform="translate(334.000000, 146.000000)">
                <g id="Background">
                    <path d="M187.004583,189.022917 L150.995417,189.022917 C150.315833,189.022917 149.763611,189.574167 149.763611,190.254722 C149.763611,190.935278 150.314861,191.485556 150.995417,191.485556 L187.003611,191.485556 C187.683194,191.485556 188.235417,190.934306 188.235417,190.254722 C188.235417,189.575139 187.684167,189.022917 187.004583,189.022917 Z M187.004583,195.569861 L150.995417,195.569861 C150.315833,195.569861 149.763611,196.121111 149.763611,196.800694 C149.763611,197.480278 150.314861,198.031528 150.995417,198.031528 L187.003611,198.031528 C187.683194,198.031528 188.235417,197.480278 188.235417,196.800694 C188.235417,196.121111 187.684167,195.569861 187.004583,195.569861 Z M180.457639,200.729444 L157.543333,200.729444 C157.000833,200.729444 156.560417,201.168889 156.560417,201.711389 C156.560417,202.253889 157.000833,202.693333 157.543333,202.693333 L180.457639,202.693333 C180.999167,202.693333 181.439583,202.253889 181.439583,201.711389 C181.439583,201.168889 180.999167,200.729444 180.457639,200.729444 Z M198.46125,113 L139.53875,113 C136.827222,113 134.628056,115.198194 134.628056,117.909722 L134.628056,205.3125 C134.628056,208.024028 136.827222,210.222222 139.53875,210.222222 L198.460278,210.222222 C201.172778,210.222222 203.370972,208.024028 203.370972,205.3125 L203.370972,117.909722 C203.371944,115.198194 201.17375,113 198.46125,113 Z M200.0975,205.3125 C200.0975,206.214722 199.363472,206.949722 198.460278,206.949722 L139.53875,206.949722 C138.635556,206.949722 137.901528,206.214722 137.901528,205.3125 L137.901528,117.909722 C137.901528,117.0075 138.635556,116.2725 139.53875,116.2725 L198.460278,116.2725 C199.363472,116.2725 200.0975,117.0075 200.0975,117.909722 L200.0975,205.3125 Z M177.184167,122.492778 L143.944861,122.492778 L143.944861,131.557778 L177.183194,131.557778 L177.183194,122.492778 L177.184167,122.492778 Z M174.963611,129.337222 L146.166389,129.337222 L146.166389,124.713333 L174.963611,124.713333 L174.963611,129.337222 Z M171.140833,133.068611 L143.944861,133.068611 L143.944861,142.133611 L171.140833,142.133611 L171.140833,133.068611 Z M169.931389,140.925139 L145.154306,140.925139 L145.154306,134.277083 L169.931389,134.277083 L169.931389,140.925139 Z M153.129444,161.687917 C151.714861,161.495417 150.413056,162.486111 150.220556,163.899722 C149.225,171.227361 152.620972,178.51125 158.873333,182.4575 C159.300139,182.727778 159.778472,182.857083 160.25,182.857083 C161.1075,182.857083 161.945556,182.43125 162.4375,181.651528 C163.19875,180.444028 162.838056,178.848611 161.631528,178.086389 C157.086389,175.217361 154.616944,169.922639 155.34125,164.595833 C155.53375,163.183194 154.544028,161.880417 153.129444,161.687917 Z M175.561528,151.227778 C174.800278,152.435278 175.161944,154.030694 176.368472,154.792917 C180.913611,157.660972 183.383056,162.955694 182.65875,168.2825 C182.46625,169.696111 183.455972,170.998889 184.870556,171.191389 C184.988194,171.207917 185.105833,171.215694 185.221528,171.215694 C186.495139,171.215694 187.6025,170.275556 187.779444,168.979583 C188.775972,161.651944 185.379028,154.368056 179.126667,150.422778 C177.920139,149.660556 176.32375,150.02125 175.561528,151.227778 Z M170.843333,152.780417 C172.256944,152.972917 173.559722,151.982222 173.75125,150.568611 C173.94375,149.154028 172.954028,147.852222 171.539444,147.659722 C164.211806,146.664167 156.928889,150.060139 152.981667,156.313472 C152.220417,157.52 152.581111,159.116389 153.787639,159.878611 C154.215417,160.148889 154.69375,160.277222 155.165278,160.277222 C156.022778,160.277222 156.860833,159.851389 157.352778,159.072639 C160.221806,154.525556 165.5175,152.056111 170.843333,152.780417 Z M166.460556,185.219583 C167.309306,185.335278 168.155139,185.391667 168.998056,185.391667 C175.428333,185.391667 181.529028,182.095833 185.019306,176.566806 C185.780556,175.360278 185.418889,173.763889 184.212361,173.001667 C183.004861,172.239444 181.409444,172.601111 180.648194,173.808611 C177.779167,178.35375 172.485417,180.823194 167.157639,180.098889 C165.744028,179.907361 164.440278,180.897083 164.24875,182.311667 C164.057222,183.72625 165.046944,185.027083 166.460556,185.219583 Z" id="report2"></path>
                </g>
            </g>
        </g>
    </g>
</svg>