<?xml version="1.0" encoding="UTF-8"?>
<svg width="27px" height="27px" viewBox="0 0 27 27" version="1.1" xmlns="http://www.w3.org/2000/svg" xmlns:xlink="http://www.w3.org/1999/xlink">
    <!-- Generator: Sketch 51.3 (57544) - http://www.bohemiancoding.com/sketch -->
    <title>Menu / Item / Icon / Reports 2</title>
    <desc>Created with Sketch.</desc>
    <defs></defs>
    <g id="Menu-/-Item-/-Icon-/-Reports-2" stroke="none" stroke-width="1" fill="none" fill-rule="evenodd">
        <g id="Group" transform="translate(0.000000, 3.000000)" fill="currentColor" fill-rule="nonzero">
            <polygon id="Shape" points="7.7203125 5.146875 7.7203125 13.4578125 4.55625 15.5671875 4.55625 5.146875"></polygon>
            <polygon id="Shape" points="4.55625 19.4484375 7.7203125 17.3390625 7.7203125 21.76875 4.55625 21.76875"></polygon>
            <path d="M12.6140625,9.0703125 L12.6140625,11.221875 C12.1921875,10.884375 11.6015625,10.6734375 11.0109375,10.6734375 C10.4203125,10.6734375 9.871875,10.884375 9.4078125,11.221875 L9.4078125,9.0703125 L12.6140625,9.0703125 Z" id="Shape"></path>
            <path d="M11.6859375,15.69375 L12.6140625,16.3265625 L12.6140625,21.76875 L9.4078125,21.76875 L9.4078125,16.2421875 L10.2515625,15.6515625 C10.7578125,15.8203125 11.221875,15.8203125 11.6859375,15.69375 Z" id="Shape"></path>
            <polygon id="Shape" points="17.5078125 0.16875 17.5078125 15.778125 14.3015625 13.5421875 14.3015625 0.16875"></polygon>
            <polygon id="Shape" points="14.3015625 17.5078125 17.5078125 19.74375 17.5078125 21.76875 14.3015625 21.76875"></polygon>
            <path d="M22.696875,13.8796875 L24.215625,14.5546875 L20.75625,18.0140625 C20.5453125,17.9296875 20.334375,17.8453125 20.08125,17.8453125 C19.7015625,17.8453125 19.3640625,17.971875 19.1109375,18.1828125 L12.4875,13.5421875 C12.4875,13.4578125 12.5296875,13.33125 12.5296875,13.246875 C12.5296875,12.403125 11.8546875,11.728125 11.0109375,11.728125 C10.1671875,11.728125 9.4921875,12.403125 9.4921875,13.246875 C9.4921875,13.33125 9.4921875,13.4578125 9.534375,13.5421875 L2.784375,18.0140625 C2.53125,17.803125 2.2359375,17.71875 1.8984375,17.71875 C1.0546875,17.71875 0.3796875,18.39375 0.3796875,19.2375 C0.3796875,20.08125 1.0546875,20.75625 1.8984375,20.75625 C2.7421875,20.75625 3.4171875,20.08125 3.4171875,19.2375 C3.4171875,19.153125 3.4171875,19.1109375 3.4171875,19.06875 L10.209375,14.596875 C10.4625,14.765625 10.715625,14.85 11.053125,14.85 C11.3484375,14.85 11.6015625,14.765625 11.8546875,14.596875 L18.6046875,19.3640625 C18.6046875,19.40625 18.6046875,19.40625 18.6046875,19.4484375 C18.6046875,20.2921875 19.2796875,20.9671875 20.1234375,20.9671875 C20.9671875,20.9671875 21.6421875,20.2921875 21.6421875,19.4484375 C21.6421875,19.2796875 21.6,19.153125 21.5578125,18.984375 L25.1015625,15.440625 L25.81875,17.04375 L26.6625,13.1203125 L22.696875,13.8796875 Z" id="Shape"></path>
        </g>
    </g>
</svg>