<?xml version="1.0" encoding="UTF-8"?>
<svg width="27px" height="27px" viewBox="0 0 27 27" version="1.1" xmlns="http://www.w3.org/2000/svg" xmlns:xlink="http://www.w3.org/1999/xlink">
    <!-- Generator: Sketch 52.2 (67145) - http://www.bohemiancoding.com/sketch -->
    <title>Menu / Item / Icon / Scales</title>
    <desc>Created with Sketch.</desc>
    <g id="Menu-/-Item-/-Icon-/-Scales" stroke="none" stroke-width="1" fill="none" fill-rule="evenodd">
        <path d="M27,21.9197532 C26.9932505,21.8689353 26.979947,21.8192611 26.9604382,21.7720332 L22.2864992,10.7219936 C22.292375,10.7010422 22.2970922,10.6797676 22.3006284,10.6582712 C22.32245,10.5061555 22.2843792,10.3513877 22.1948025,10.2280615 C22.1052259,10.1047352 21.9714922,10.022968 21.8230615,10.0007721 L15.905753,9.11734826 C15.8107168,8.1441993 15.1339628,7.33491821 14.2102491,7.08981806 L14.2102491,3.57929434 C14.2102491,3.25935891 13.9572148,3 13.6450811,3 C13.3329475,3 13.0799132,3.25935891 13.0799132,3.57929434 L13.0799132,7.08402512 C12.3832545,7.26913317 11.8125159,7.78007265 11.5398305,8.46274565 L5.34276383,7.5358747 C5.17524535,7.51048289 5.00544592,7.5634225 4.88009475,7.68012442 C4.75474358,7.79682634 4.68705113,7.96499163 4.69564652,8.13834082 L0.0414883782,19.1449333 C0.0219796702,19.1921612 0.00867613439,19.2418354 0.00192662107,19.2926534 C0.00192662107,19.2926534 0.00192662107,19.3187216 0.00192662107,19.3303075 C0.00192662107,19.3418934 0.00192662107,19.3563758 0.00192662107,19.3708581 C-0.000642207024,19.4026649 -0.000642207024,19.4346349 0.00192662107,19.4664417 C0.00192662107,19.4664417 0.00192662107,19.4664417 0.00192662107,19.4809241 C0.0118618219,19.5301698 0.0280106677,19.5778799 0.0499658975,19.6228512 L0.0669209363,19.6547124 C0.0914745683,19.7001992 0.121889938,19.7420914 0.15734781,19.7792606 L0.863807758,20.5033786 C3.31255571,23.0076599 7.27689339,23.0076599 9.72564135,20.5033786 L10.4321013,19.7792606 C10.4675592,19.7420914 10.4979745,19.7001992 10.5225282,19.6547124 L10.5394832,19.6257476 C10.5614384,19.5807764 10.5775873,19.5330663 10.5875225,19.4838205 C10.5875225,19.4838205 10.5875225,19.4838205 10.5875225,19.4838205 C10.5900913,19.4520137 10.5900913,19.4200437 10.5875225,19.388237 C10.5875225,19.388237 10.5875225,19.3621687 10.5875225,19.3476864 C10.5875225,19.333204 10.5875225,19.3216181 10.5875225,19.3100322 C10.580773,19.2592143 10.5674694,19.2095401 10.5479607,19.1623122 L6.18768993,8.83349403 L11.3815835,9.60974845 C11.4771065,10.6756333 12.27246,11.5357508 13.3057464,11.6905919 C14.3390328,11.8454331 15.3413267,11.2546986 15.7305509,10.2614546 L20.9837871,11.0463984 L16.4454884,21.7633438 C16.4259797,21.8105717 16.4126761,21.8602459 16.4059266,21.9110638 C16.4059266,21.9110638 16.4059266,21.9371321 16.4059266,21.948718 C16.4059266,21.9603038 16.4059266,21.9747862 16.4059266,21.9892686 C16.4033578,22.0210753 16.4033578,22.0530453 16.4059266,22.0848521 C16.4059266,22.0848521 16.4059266,22.0848521 16.4059266,22.0993345 C16.4158618,22.1485802 16.4320107,22.1962903 16.4539659,22.2412616 L16.4709209,22.2731228 C16.4954746,22.3186096 16.5258899,22.3605018 16.5613478,22.3976711 L17.2678078,23.121789 C19.7165557,25.6260703 23.6808934,25.6260703 26.1296413,23.121789 L26.8361013,22.3976711 C26.8715592,22.3605018 26.9019745,22.3186096 26.9265282,22.2731228 L26.9434832,22.2412616 C26.9654384,22.1962903 26.9815873,22.1485802 26.9915225,22.0993345 C26.9915225,22.0993345 26.9915225,22.0993345 26.9915225,22.0848521 C26.9940913,22.0530453 26.9940913,22.0210753 26.9915225,21.9892686 C26.9915225,21.9892686 26.9915225,21.9632003 26.9915225,21.948718 C26.9915225,21.9342356 27,21.9313391 27,21.9197532 Z M9.16895091,18.7915638 L1.41484652,18.7915638 L5.30320207,9.63002375 L9.16895091,18.7915638 Z M17.827324,21.4215601 L21.6930729,12.2687095 L25.5814284,21.4186636 L17.827324,21.4215601 Z" id="Shape" fill="currentColor" fill-rule="nonzero"></path>
    </g>
</svg>