<?xml version="1.0" encoding="UTF-8"?>
<svg width="27px" height="27px" viewBox="0 0 27 27" version="1.1" xmlns="http://www.w3.org/2000/svg" xmlns:xlink="http://www.w3.org/1999/xlink">
    <!-- Generator: Sketch 52.2 (67145) - http://www.bohemiancoding.com/sketch -->
    <title>Menu / Item / Icon / Settlement</title>
    <desc>Created with Sketch.</desc>
    <g id="Menu-/-Item-/-Icon-/-Settlement" stroke="none" stroke-width="1" fill="none" fill-rule="evenodd">
        <path d="M14.9415469,1.39784483 L7.06007812,1.39784483 C6.79007812,1.39784483 6.530625,1.50603448 6.33740625,1.69913793 L0.44296875,7.59956897 C0.168328125,7.87456897 0.0135,8.25086207 0.0135,8.64353448 L0.0135,21.4573276 C0.0135,23.7461207 1.82967188,25.6017241 4.06982812,25.6017241 L14.941125,25.6017241 C17.1812812,25.6017241 18.9974531,23.7461207 18.9974531,21.4573276 L18.9974531,5.54267241 C18.997875,3.25344828 17.1817031,1.39784483 14.9415469,1.39784483 Z M17.3753438,21.4573276 C17.3753438,22.8284483 16.2835313,23.9439655 14.9415469,23.9439655 L4.07025,23.9439655 C2.72826563,23.9439655 1.63645313,22.8284483 1.63645313,21.4573276 L1.63645313,9.68706897 L4.20482813,9.68706897 C6.44245313,9.68706897 8.26115625,7.82887931 8.26115625,5.54267241 L8.26115625,3.05560345 L14.941125,3.05560345 C16.2831094,3.05560345 17.3749219,4.17112069 17.3749219,5.54224138 L17.3749219,21.4573276 L17.3753438,21.4573276 Z" id="Shape" fill="currentColor" fill-rule="nonzero"></path>
        <path d="M24.802875,17.6474138 C24.7982344,18.8064655 24.6615469,19.9581897 24.3514687,21.0793103 C24.1915781,21.6517241 24.0156562,22.2193966 23.56425,22.6474138 C23.5132031,22.6948276 23.5039219,22.8060345 23.4971719,22.8887931 C23.4857812,23.0211207 23.5018125,23.1560345 23.4878906,23.2883621 C23.4765,23.3827586 23.4368437,23.4612069 23.3769375,23.5060345 C23.3701875,23.5107759 23.3609062,23.5176724 23.3490937,23.525 C23.3469844,23.525 23.3444531,23.525 23.3444531,23.525 C23.3423437,23.5271552 23.3423437,23.5271552 23.3423437,23.5271552 C23.3377031,23.5293103 23.3355937,23.5293103 23.3309531,23.5318966 C23.3288437,23.5318966 23.3242031,23.5340517 23.3216719,23.5366379 C23.1550312,23.6030172 23.0301562,23.5318966 23.0301562,23.5318966 C22.946625,23.4939655 22.8888281,23.4064655 22.8749062,23.2883621 C22.8609844,23.1560345 22.8770156,23.0211207 22.8635156,22.8887931 C22.8567656,22.8060345 22.8495937,22.6948276 22.7985469,22.6474138 C22.3471406,22.2193966 22.1691094,21.6517241 22.0113281,21.0793103 C21.70125,19.9581897 21.5645625,18.8064655 21.5599219,17.6474138 C21.5552812,15.7646552 21.5645625,13.8823276 21.5738437,11.999569 L24.789375,11.999569 C24.7982344,13.8823276 24.8075156,15.7650862 24.802875,17.6474138 Z" id="Path" fill="currentColor"></path>
        <path d="M25.1294062,5.12068966 L25.1294062,4.76551724 C25.1294062,3.66810345 24.2544375,2.7762931 23.1824531,2.7762931 C22.1083594,2.7762931 21.2333906,3.66810345 21.2333906,4.76551724 L21.2333906,11.2150862 L25.1294062,11.2150862 L25.1294062,6.1012931 C25.6706719,6.29698276 26.0604844,6.8237069 26.0604844,7.44310345 L26.0604844,9.98275862 C26.0604844,10.2439655 26.267625,10.4556034 26.5232812,10.4556034 C26.7789375,10.4556034 26.9860781,10.2439655 26.9860781,9.98275862 L26.9860781,7.44310345 C26.9865,6.29827586 26.1874687,5.34051724 25.1294062,5.12068966 Z" id="Path" fill="currentColor"></path>
        <path d="M14.7322969,12.3387931 L4.2795,12.3387931 C3.92090625,12.3387931 3.63065625,12.0418103 3.63065625,11.6758621 C3.63065625,11.3099138 3.92132813,11.012931 4.2795,11.012931 L14.7322969,11.012931 C15.0908906,11.012931 15.3811406,11.3099138 15.3811406,11.6758621 C15.3811406,12.0418103 15.0904688,12.3387931 14.7322969,12.3387931 Z" id="Path" fill="currentColor"></path>
        <path d="M14.7322969,15.1107759 L4.2795,15.1107759 C3.92090625,15.1107759 3.63065625,14.8137931 3.63065625,14.4478448 C3.63065625,14.0814655 3.92132813,13.7849138 4.2795,13.7849138 L14.7322969,13.7849138 C15.0908906,13.7849138 15.3811406,14.0818966 15.3811406,14.4478448 C15.3811406,14.8137931 15.0904688,15.1107759 14.7322969,15.1107759 Z" id="Path" fill="currentColor"></path>
        <path d="M14.7322969,17.8831897 L4.2795,17.8831897 C3.92090625,17.8831897 3.63065625,17.5862069 3.63065625,17.2202586 C3.63065625,16.8538793 3.92132813,16.5573276 4.2795,16.5573276 L14.7322969,16.5573276 C15.0908906,16.5573276 15.3811406,16.8543103 15.3811406,17.2202586 C15.3811406,17.5862069 15.0904688,17.8831897 14.7322969,17.8831897 Z" id="Path" fill="currentColor"></path>
        <path d="M4.77942188,22.3025862 C4.72964063,22.3025862 4.67901563,22.2965517 4.62839063,22.2844828 C4.27992188,22.199569 4.06434375,21.8422414 4.14745313,21.4857759 C4.21115625,21.212931 4.29004688,20.8728448 4.47735938,20.5581897 C4.7334375,20.1280172 5.14645313,19.8487069 5.58309375,19.8099138 C6.23446875,19.7517241 6.672375,20.1840517 6.99257812,20.499569 C7.1195625,20.624569 7.33176562,20.8336207 7.41276562,20.8336207 C7.46929687,20.8331897 7.62707812,20.7357759 7.73128125,20.6706897 C7.77642187,20.6426724 7.82114062,20.6150862 7.86585937,20.5883621 C8.7496875,20.0646552 9.85921875,19.9400862 10.83375,20.2560345 C11.1754687,20.3668103 11.3644687,20.7396552 11.2560469,21.0887931 C11.147625,21.437931 10.783125,21.6310345 10.4414062,21.5206897 C9.8094375,21.3159483 9.0905625,21.3965517 8.5168125,21.7362069 C8.47926562,21.7581897 8.44214062,21.7814655 8.40501562,21.8047414 C8.16454687,21.9538793 7.8350625,22.1586207 7.41740625,22.1603448 C7.41571875,22.1603448 7.41403125,22.1603448 7.41234375,22.1603448 C6.807375,22.1603448 6.39351562,21.7525862 6.09103125,21.4547414 C5.9923125,21.3573276 5.76239062,21.1314655 5.697,21.1314655 C5.69615625,21.1314655 5.6953125,21.1314655 5.69489062,21.1314655 C5.68307812,21.1357759 5.6311875,21.1719828 5.58646875,21.2474138 C5.50546875,21.3836207 5.4590625,21.5827586 5.410125,21.7935345 C5.33925,22.0974138 5.07304688,22.3025862 4.77942188,22.3025862 Z" id="Path" fill="currentColor"></path>
    </g>
</svg>
