<svg xmlns="http://www.w3.org/2000/svg" data-name="Layer 1" viewBox="0 0 96 96" x="0px" y="-5px"><title>Artboard 117</title><path d="M90,78.33A9.34642,9.34642,0,0,0,80.67,69H15.33A9.34642,9.34642,0,0,0,6,78.33V83H90Z"/><path d="M92,90H4a2,2,0,0,0,0,4H92a2,2,0,0,0,0-4Z"/><path d="M32.07,57.06006Q32.7,57,33.33,57H62.67q.63007,0,1.26.06006l5.18-28.29C70.77,19.66992,67,10.33,59.73,5.54a21.20376,21.20376,0,0,0-23.46,0C29,10.33,25.23,19.66992,26.89,28.77Z"/><path d="M62.67,61H33.33a9.28177,9.28177,0,0,0-7.67,4H70.34A9.28177,9.28177,0,0,0,62.67,61Z"/></svg>
